<?xml version="1.0" encoding="UTF-8" standalone="no"?>
<svg
   xmlns:dc="http://purl.org/dc/elements/1.1/"
   xmlns:cc="http://creativecommons.org/ns#"
   xmlns:rdf="http://www.w3.org/1999/02/22-rdf-syntax-ns#"
   xmlns:svg="http://www.w3.org/2000/svg"
   xmlns="http://www.w3.org/2000/svg"
   xmlns:sodipodi="http://sodipodi.sourceforge.net/DTD/sodipodi-0.dtd"
   xmlns:inkscape="http://www.inkscape.org/namespaces/inkscape"
   sodipodi:docname="logo.svg"
   inkscape:version="1.0.2-2 (e86c870879, 2021-01-15)"
   id="svg8"
   version="1.1"
   viewBox="0 0 381.00019 254.00001"
   height="960"
   width="1440.0007">
  <defs
     id="defs2">
    <inkscape:path-effect
       effect="powerstroke"
       id="path-effect839"
       is_visible="true"
       lpeversion="1"
       offset_points="0,0.1322915"
       sort_points="true"
       interpolator_type="CubicBezierJohan"
       interpolator_beta="0.2"
       start_linecap_type="zerowidth"
       linejoin_type="extrp_arc"
       miter_limit="4"
       scale_width="1"
       end_linecap_type="zerowidth" />
    <inkscape:path-effect
       effect="powerstroke"
       id="path-effect835"
       is_visible="true"
       lpeversion="1"
       offset_points="0,0.1322915"
       sort_points="true"
       interpolator_type="CubicBezierJohan"
       interpolator_beta="0.2"
       start_linecap_type="zerowidth"
       linejoin_type="extrp_arc"
       miter_limit="4"
       scale_width="1"
       end_linecap_type="zerowidth" />
  </defs>
  <sodipodi:namedview
     id="base"
     pagecolor="#ffffff"
     bordercolor="#666666"
     borderopacity="1.0"
     inkscape:pageopacity="0.0"
     inkscape:pageshadow="2"
     inkscape:zoom="1"
     inkscape:cx="823.38043"
     inkscape:cy="471.45897"
     inkscape:document-units="in"
     inkscape:current-layer="layer1"
     inkscape:document-rotation="0"
     showgrid="false"
     units="px"
     inkscape:pagecheckerboard="true"
     inkscape:window-width="2560"
     inkscape:window-height="1506"
     inkscape:window-x="-11"
     inkscape:window-y="-11"
     inkscape:window-maximized="1"
     inkscape:lockguides="false" />
  <metadata
     id="metadata5">
    <rdf:RDF>
      <cc:Work
         rdf:about="">
        <dc:format>image/svg+xml</dc:format>
        <dc:type
           rdf:resource="http://purl.org/dc/dcmitype/StillImage" />
        <dc:title />
      </cc:Work>
    </rdf:RDF>
  </metadata>
  <g
     inkscape:label="Layer 1"
     inkscape:groupmode="layer"
     id="layer1"
     transform="translate(-25.3999, -12.7)">
    <path
       style="fill:#ffffff;fill-opacity:1;stroke:none;stroke-width:0.264584px;stroke-linecap:butt;stroke-linejoin:miter;stroke-opacity:1"
       d="M 25.399896,12.699998 V 266.7 L 406.40009,126.99996 Z"
       id="path841"
       sodipodi:nodetypes="cccc" />
    <path
       id="path841-2"
       style="fill:#aa0000;fill-opacity:1;stroke:none;stroke-width:1px;stroke-linecap:butt;stroke-linejoin:miter;stroke-opacity:1"
       d="M 32.527344 43.712891 L 32.527344 913.42383 L 152.52734 869.42383 L 152.52734 79.712891 L 32.527344 43.712891 z "
       transform="matrix(0.26458334,0,0,0.26458334,25.399896,12.699998)" />
    <text
       xml:space="preserve"
       style="font-weight:bold;font-size:14.8167px;line-height:1.25;font-family:Arial;-inkscape-font-specification:'Arial Bold';text-align:center;text-anchor:middle;fill:#ffffff;fill-opacity:1;stroke-width:0.264583"
       x="49.347244"
       y="51.988617"
       id="text884"><tspan
         sodipodi:role="line"
         id="tspan882"
         x="49.347244"
         y="51.988617"
         style="font-size:14.8167px;fill:#ffffff;fill-opacity:1;stroke-width:0.264583">H</tspan><tspan
         sodipodi:role="line"
         x="49.347244"
         y="70.509445"
         style="font-size:14.8167px;fill:#ffffff;fill-opacity:1;stroke-width:0.264583"
         id="tspan886">A</tspan><tspan
         sodipodi:role="line"
         x="49.347244"
         y="89.030281"
         style="font-size:14.8167px;fill:#ffffff;fill-opacity:1;stroke-width:0.264583"
         id="tspan888">R</tspan><tspan
         sodipodi:role="line"
         x="49.347244"
         y="107.55111"
         style="font-size:14.8167px;fill:#ffffff;fill-opacity:1;stroke-width:0.264583"
         id="tspan890">B</tspan><tspan
         sodipodi:role="line"
         x="49.347244"
         y="126.07195"
         style="font-size:14.8167px;fill:#ffffff;fill-opacity:1;stroke-width:0.264583"
         id="tspan892">O</tspan><tspan
         sodipodi:role="line"
         x="49.347244"
         y="144.59277"
         style="font-size:14.8167px;fill:#ffffff;fill-opacity:1;stroke-width:0.264583"
         id="tspan894">R</tspan><tspan
         sodipodi:role="line"
         x="49.347244"
         y="163.11362"
         style="font-size:14.8167px;fill:#ffffff;fill-opacity:1;stroke-width:0.264583"
         id="tspan896" /><tspan
         sodipodi:role="line"
         x="49.347244"
         y="181.63445"
         style="font-size:14.8167px;fill:#ffffff;fill-opacity:1;stroke-width:0.264583"
         id="tspan898">V</tspan><tspan
         sodipodi:role="line"
         x="49.347244"
         y="200.15527"
         style="font-size:14.8167px;fill:#ffffff;fill-opacity:1;stroke-width:0.264583"
         id="tspan900">I</tspan><tspan
         sodipodi:role="line"
         x="49.347244"
         y="218.67612"
         style="font-size:14.8167px;fill:#ffffff;fill-opacity:1;stroke-width:0.264583"
         id="tspan902">E</tspan><tspan
         sodipodi:role="line"
         x="49.347244"
         y="237.19695"
         style="font-size:14.8167px;fill:#ffffff;fill-opacity:1;stroke-width:0.264583"
         id="tspan904">W</tspan></text>
    <path
       id="path1021"
       style="font-weight:bold;font-size:50.8px;line-height:1.25;font-family:Arial;-inkscape-font-specification:'Arial Bold';text-align:center;text-anchor:middle;fill:#aa0000;fill-opacity:1;stroke:none;stroke-width:0.264583;stroke-opacity:1"
       d="m 324.48575,133.07515 13.484,0.133 c -2.067,3.534 -5.514,6.889 -10.339,10.093 -4.795,3.507 -10.89,6.738 -18.285,9.449 -9.149,3.355 -16.667,3.525 -22.553,-0.004 -5.885,-4.244 -8.823,-11.868 -8.813,-22.356 0.01,-11.093 2.976,-19.256 8.899,-23.963 5.921,-4.033 13.701,-4.344 23.342,-1.462 8.42,2.517 15.259,5.866 20.518,9.679 3.13,2.029 5.478,4.292 7.044,6.8 l -13.762,0.248 c -0.814,-2.011 -2.519,-3.786 -5.118,-5.358 -2.566,-1.667 -5.697,-2.885 -9.391,-3.579 -5.103,-0.958 -9.252,-0.345 -12.448,2.004 -3.165,2.57 -4.75,7.357 -4.755,14.2 -0.006,7.26 1.556,12.166 4.686,14.555 3.131,2.172 7.203,2.537 12.215,1.255 3.697,-0.945 6.878,-2.476 9.541,-4.506 2.663,-1.913 4.575,-4.307 5.735,-7.188 z m -90.199,45.582 0.043,-39.875 -25.154,-62.128403 16.293,4.6912 16.161,40.293203 15.909,-31.059003 16.011,4.61 -25.36,42.532003 -0.038,36.004 z m -64.72,23.02 -24.435,-143.464098 15.072,4.3398 17.3,102.192298 16.976,-92.323103 14.743,4.2452 -24.804,119.727903 z m -87.045997,30.962 0.256,-192.379998 13.898,4.0018 -0.095,72.196198 27.243997,0.938 0.084,-65.292898 13.899,4.0018 -0.201,156.942098 -13.912,4.948 0.094,-72.535 -27.248997,2.028 -0.106,80.204 z" />
  </g>
</svg>
